<svg xmlns="http://www.w3.org/2000/svg">
 <symbol width="20" height="20" viewBox="0 0 20 20" fill="none" id="header-icon-search">
<path d="M14.5726 16.0029C10.5755 19.1865 4.988 18.3056 2.02842 14.6542C-0.828088 11.129 -0.64944 6.04347 2.44943 2.82482C5.65137 -0.500594 10.6854 -0.944524 14.3346 1.78337C15.642 2.76051 16.6183 4.00364 17.2542 5.50838C17.8938 7.02186 18.0881 8.59654 17.8663 10.2205C17.6452 11.837 17 13.2775 15.9499 14.6217C16.0349 14.6773 16.1255 14.7173 16.1904 14.7822C17.3448 15.9311 18.4947 17.0843 19.6491 18.2331C19.9227 18.5054 20.0589 18.8225 19.9776 19.2047C19.8165 19.9651 18.9107 20.2586 18.3298 19.7366C18.0575 19.4925 17.807 19.2234 17.5484 18.9649C16.6002 18.0177 15.6526 17.0699 14.7044 16.1227C14.665 16.0853 14.6238 16.0503 14.5726 16.0029ZM15.9605 8.98677C15.9705 5.12689 12.8529 2.00627 8.98261 2.00065C5.12292 1.99503 2.00781 5.09068 1.99094 8.94806C1.97408 12.8173 5.08544 15.9467 8.96762 15.9648C12.8117 15.9829 15.9505 12.8504 15.9605 8.98677Z" fill="#3D3D3D"/>
</symbol>
<symbol width="31" height="24" viewBox="0 0 31 24" fill="none" id="header-icon-basket">
<path d="M17.1567 20.25H9.89163C6.79003 20.25 4.26667 17.7267 4.26667 14.6251V8.85947C4.26667 5.9762 2.82958 3.30739 0.422521 1.72031C-0.00975775 1.43531 -0.129101 0.853876 0.155897 0.421598C0.440896 -0.0107278 1.02228 -0.130118 1.45465 0.154974C2.82874 1.06097 3.94351 2.2559 4.74067 3.63167C4.91293 3.82466 6.30202 5.29699 8.57919 5.29699H19.3748C22.3201 5.24191 24.6254 8.19769 23.8554 11.0406L22.6126 15.9939C21.9839 18.4998 19.7404 20.25 17.1567 20.25ZM5.90513 6.64234C6.06099 7.36238 6.14166 8.10483 6.14166 8.85947V14.6251C6.14166 16.6928 7.8239 18.375 9.89163 18.375H17.1567C18.8792 18.375 20.3748 17.2082 20.794 15.5376L22.0367 10.5844C22.4943 8.89509 21.1243 7.13931 19.3748 7.17198H8.57914C7.54926 7.17198 6.65283 6.94993 5.90513 6.64234ZM9.42289 22.8281C9.42289 22.1809 8.89822 21.6563 8.25102 21.6563C6.69609 21.7182 6.69745 23.9387 8.25102 24C8.89822 24 9.42289 23.4753 9.42289 22.8281ZM18.751 22.8281C18.751 22.1809 18.2263 21.6563 17.5791 21.6563C16.0242 21.7182 16.0255 23.9387 17.5791 24C18.2263 24 18.751 23.4753 18.751 22.8281ZM20.3123 9.98446C20.3123 9.46668 19.8925 9.04697 19.3748 9.04697H8.95414C7.71027 9.09647 7.71121 10.8729 8.95414 10.922H19.3748C19.8925 10.922 20.3123 10.5022 20.3123 9.98446Z" fill="#3D3D3D"/>
<circle cx="23.001" cy="8" r="7" fill="#46A358" stroke="white" stroke-width="2"/>
<path d="M25.121 8.83C25.121 7.58 24.101 6.62 22.951 6.62C22.841 6.62 22.751 6.63 22.661 6.65L24.251 4.4H23.001L21.351 6.73C21.121 7.06 20.951 7.31 20.841 7.49C20.731 7.67 20.641 7.87 20.561 8.1C20.491 8.32 20.451 8.56 20.451 8.82C20.421 10.12 21.531 11.13 22.781 11.11C24.041 11.11 25.121 10.12 25.121 8.83ZM24.071 8.83C24.071 9.2 23.941 9.52 23.691 9.77C23.441 10.02 23.141 10.14 22.781 10.14C22.411 10.14 22.111 10.02 21.861 9.77C21.611 9.52 21.491 9.2 21.491 8.83C21.491 8.46 21.611 8.15 21.861 7.9C22.111 7.65 22.411 7.52 22.781 7.52C23.141 7.52 23.441 7.65 23.691 7.9C23.941 8.15 24.071 8.46 24.071 8.83Z" fill="white"/>
</symbol>
<symbol width="20" height="20" viewBox="0 0 20 20" fill="none" id="icon-login">
<path d="M18.1601 10.1003H8.12598" stroke="white" stroke-width="1.5" stroke-linecap="round" stroke-linejoin="round"/>
<path d="M15.7212 7.67041L18.1612 10.1004L15.7212 12.5304" stroke="white" stroke-width="1.5" stroke-linecap="round" stroke-linejoin="round"/>
<path d="M13.634 6.35817C13.359 3.37484 12.2424 2.2915 7.8007 2.2915C1.8832 2.2915 1.8832 4.2165 1.8832 9.99984C1.8832 15.7832 1.8832 17.7082 7.8007 17.7082C12.2424 17.7082 13.359 16.6248 13.634 13.6415" stroke="white" stroke-width="1.5" stroke-linecap="round" stroke-linejoin="round"/>
</symbol>
<symbol width="20" height="20" viewBox="0 0 20 20" fill="none" id="google-register">
<path d="M16.4336 17.6055C14.6992 19.0703 12.4492 20 9.99999 20C6.35545 20 3.1562 17.9922 1.42186 15.0625L2.07116 12.0695L4.9492 11.5352C5.61717 13.6914 7.63276 15.2734 9.99999 15.2734C11.1484 15.2734 12.2148 14.9102 13.0937 14.2656L15.8594 14.6875L16.4336 17.6055Z" fill="#59C36A"/>
<path d="M16.4336 17.6055L15.8594 14.6875L13.0937 14.2656C12.2148 14.9102 11.1484 15.2735 10 15.2735V20C12.4493 20 14.6992 19.0703 16.4336 17.6055Z" fill="#00A66C"/>
<path d="M4.72656 10C4.72656 10.539 4.8086 11.0546 4.94922 11.5352L1.42188 15.0625C0.542969 13.5859 0 11.8515 0 10C0 8.1484 0.542969 6.41406 1.42188 4.9375L4.25285 5.42473L4.94922 8.46484C4.8086 8.94527 4.72656 9.4609 4.72656 10Z" fill="#FFDA2D"/>
<path d="M20 10C20 13.0468 18.5899 15.7773 16.4336 17.6055L13.0938 14.2656C13.7734 13.7734 14.3477 13.1171 14.7227 12.3437H10C9.67184 12.3437 9.41406 12.0859 9.41406 11.7578V8.24219C9.41406 7.91402 9.67184 7.65625 10 7.65625H19.25C19.5312 7.65625 19.7773 7.85543 19.8242 8.13668C19.9414 8.74609 20 9.37887 20 10Z" fill="#4086F4"/>
<path d="M14.7227 12.3437C14.3477 13.1171 13.7734 13.7734 13.0938 14.2656L16.4336 17.6055C18.5899 15.7773 20 13.0469 20 10C20 9.37887 19.9414 8.74609 19.8242 8.13668C19.7773 7.85543 19.5312 7.65625 19.25 7.65625H10V12.3437H14.7227Z" fill="#4175DF"/>
<path d="M16.5976 2.79293C16.6094 2.95699 16.5391 3.10937 16.4336 3.22652L13.9258 5.72262C13.7266 5.93355 13.3985 5.95699 13.1641 5.78121C12.2382 5.08984 11.1484 4.72656 9.99999 4.72656C7.63276 4.72656 5.61717 6.30855 4.9492 8.46484L1.42186 4.9375C3.1562 2.00781 6.35546 0 9.99999 0C12.332 0 14.6055 0.859375 16.3867 2.35934C16.5156 2.46484 16.5859 2.62887 16.5976 2.79293Z" fill="#FF641A"/>
<path d="M13.1641 5.78121C13.3984 5.95703 13.7265 5.93355 13.9257 5.72262L16.4336 3.22652C16.5391 3.10938 16.6094 2.95703 16.5976 2.79293C16.5859 2.62883 16.5156 2.46484 16.3867 2.35934C14.6055 0.859375 12.332 0 10 0V4.72656C11.1484 4.72656 12.2382 5.08984 13.1641 5.78121Z" fill="#F03800"/>
</symbol>
<symbol width="20" height="20" viewBox="0 0 20 20" fill="none" id="facebook-register">
<g clip-path="url(#clip0_2_2021)">
<path d="M13.3309 3.32083H15.1567V0.140833C14.8417 0.0975 13.7584 0 12.4967 0C6.72006 0 8.29172 6.54167 8.06172 7.5H5.15589V11.055H8.06089V20H11.6226V11.0558H14.4101L14.8526 7.50083H11.6217C11.7784 5.1475 10.9876 3.32083 13.3309 3.32083Z" fill="#3B5999"/>
</g>
<defs>
<clipPath id="clip0_2_2021">
<rect width="20" height="20" fill="white"/>
</clipPath>
</defs>
</symbol>
<symbol width="21" height="21" viewBox="0 0 21 21" fill="none" id="circle">
<circle cx="10.5" cy="10.5" r="9" fill="#46A358" stroke="white" stroke-width="3"/>
</symbol>
<symbol width="20" height="20" viewBox="0 0 20 20" fill="none" id="shopping">
<g clip-path="url(#clip0_1_128)">
<path d="M14.294 16.8745H8.24077C5.65655 16.8745 3.55412 14.7721 3.55412 12.1879V7.38404C3.55412 4.98174 2.35676 2.75812 0.351225 1.43578C-0.00894369 1.19832 -0.108379 0.71388 0.129078 0.353711C0.366535 -0.00649689 0.850939 -0.105971 1.21119 0.131564C2.35606 0.886427 3.28487 1.88203 3.94905 3.0283C4.09258 3.1891 5.24995 4.41583 7.14726 4.41583H16.142C18.596 4.36994 20.5168 6.83265 19.8752 9.20136L18.8397 13.3283C18.3159 15.4163 16.4466 16.8745 14.294 16.8745ZM4.91926 5.53676C5.04912 6.13669 5.11634 6.75528 5.11634 7.38404V12.1879C5.11634 13.9107 6.51796 15.3123 8.24077 15.3123H14.294C15.7291 15.3123 16.9752 14.3401 17.3245 12.9482L18.3599 8.8212C18.7412 7.41372 17.5997 5.95082 16.142 5.97804H7.14722C6.28913 5.97804 5.54224 5.79304 4.91926 5.53676ZM7.85021 19.0226C7.85021 18.4833 7.41307 18.0462 6.87383 18.0462C5.57828 18.0978 5.57942 19.9479 6.87383 19.9989C7.41307 19.9989 7.85021 19.5618 7.85021 19.0226ZM15.6222 19.0226C15.6222 18.4833 15.1851 18.0462 14.6459 18.0462C13.3503 18.0978 13.3514 19.9479 14.6459 19.9989C15.1851 19.9989 15.6222 19.5618 15.6222 19.0226ZM16.9231 8.32137C16.9231 7.88996 16.5734 7.54026 16.142 7.54026H7.45966C6.42329 7.5815 6.42407 9.06158 7.45966 9.10248H16.142C16.5734 9.10248 16.9231 8.75277 16.9231 8.32137Z" fill="#46A358"/>
</g>
<defs>
<clipPath id="clip0_1_128">
<rect width="20" height="20" fill="white"/>
</clipPath>
</defs>
</symbol>
<symbol width="20" height="20" viewBox="0 0 20 20" fill="none" id="heart">
<path d="M10 18.8873C9.71527 18.8873 9.44077 18.7842 9.22684 18.5968C8.41888 17.8903 7.63992 17.2264 6.95267 16.6408L6.94916 16.6377C4.93423 14.9207 3.19427 13.4378 1.98364 11.9771C0.630341 10.3441 0 8.79578 0 7.10434C0 5.46097 0.563507 3.94485 1.58661 2.83508C2.62192 1.71219 4.04251 1.09375 5.58716 1.09375C6.74164 1.09375 7.79892 1.45874 8.72955 2.1785C9.19922 2.54181 9.62494 2.98645 10 3.5051C10.3752 2.98645 10.8008 2.54181 11.2706 2.1785C12.2012 1.45874 13.2585 1.09375 14.413 1.09375C15.9575 1.09375 17.3782 1.71219 18.4135 2.83508C19.4366 3.94485 20 5.46097 20 7.10434C20 8.79578 19.3698 10.3441 18.0165 11.9769C16.8059 13.4378 15.0661 14.9205 13.0515 16.6374C12.363 17.224 11.5828 17.8889 10.773 18.5971C10.5592 18.7842 10.2846 18.8873 10 18.8873ZM5.58716 2.26532C4.37363 2.26532 3.25882 2.74963 2.44781 3.62915C1.62476 4.52194 1.17142 5.75607 1.17142 7.10434C1.17142 8.52692 1.70013 9.79919 2.88559 11.2296C4.03137 12.6122 5.73563 14.0645 7.70889 15.7462L7.71255 15.7492C8.4024 16.3371 9.18442 17.0036 9.99832 17.7153C10.8171 17.0023 11.6003 16.3347 12.2916 15.7458C14.2647 14.0642 15.9688 12.6122 17.1146 11.2296C18.2999 9.79919 18.8286 8.52692 18.8286 7.10434C18.8286 5.75607 18.3752 4.52194 17.5522 3.62915C16.7413 2.74963 15.6264 2.26532 14.413 2.26532C13.524 2.26532 12.7078 2.54791 11.9872 3.10516C11.3449 3.60199 10.8975 4.23004 10.6352 4.66949C10.5003 4.89548 10.2629 5.03036 10 5.03036C9.73709 5.03036 9.49966 4.89548 9.36478 4.66949C9.10263 4.23004 8.65524 3.60199 8.01285 3.10516C7.29218 2.54791 6.47598 2.26532 5.58716 2.26532Z" fill="#3D3D3D"/>
</symbol>
<symbol width="20" height="20" viewBox="0 0 20 20" fill="none" id="search">
<g clip-path="url(#clip0_1_132)">
<path d="M14.5655 16.0022C10.5703 19.1858 4.98543 18.3048 2.02723 14.6536C-0.827947 11.1284 -0.649381 6.04306 2.44805 2.8245C5.6485 -0.500824 10.6802 -0.944742 14.3277 1.78307C15.6344 2.76019 16.6103 4.00328 17.2459 5.50798C17.8852 7.02142 18.0794 8.59605 17.8578 10.22C17.6367 11.8365 16.9918 13.2769 15.9422 14.6211C16.0272 14.6767 16.1177 14.7166 16.1826 14.7816C17.3364 15.9304 18.4859 17.0836 19.6397 18.2324C19.9131 18.5046 20.0493 18.8218 19.9681 19.2039C19.807 19.9643 18.9017 20.2578 18.321 19.7358C18.0488 19.4917 17.7985 19.2226 17.54 18.9641C16.5922 18.017 15.6451 17.0692 14.6973 16.122C14.6579 16.0846 14.6167 16.0496 14.5655 16.0022ZM15.9529 8.98627C15.9629 5.1265 12.8467 2.00597 8.97818 2.00035C5.12029 1.99473 2.00663 5.09029 1.98977 8.94757C1.97291 12.8167 5.08283 15.946 8.9632 15.9641C12.8055 15.9822 15.9429 12.8498 15.9529 8.98627Z" fill="#3D3D3D"/>
</g>
<defs>
<clipPath id="clip0_1_132">
<rect width="19.9913" height="20" fill="white"/>
</clipPath>
</defs>
</symbol>
<symbol width="18" height="18" viewBox="0 0 18 18" fill="none" id="page-right">
<path d="M6.375 3.75C6.375 3.75 11.625 6.858 11.625 9C11.625 11.1413 6.375 14.25 6.375 14.25" stroke="#3D3D3D" stroke-width="1.5" stroke-linecap="round" stroke-linejoin="round"/>
</symbol>
</svg>